# xmcd CD database file
#
# Track frame offsets:
#	150
#	17488
#	40656
#	62246
#	81542
#	105573
#	125894
#	146639
#	165122
#	182543
#	203898
#	225006
#	245110
#	262805
#	278054
#
# Disc length: 3957 seconds
#
# Revision: 0
# Processed by: cddbd v1.5.2PL0 Copyright (c) Steve Scherf et al.
# Submitted via: CDex 1.70beta2
#
DISCID=c40f730f
DTITLE=Various Artist - 30 Salsas Pegaditas: Lo Nuevo y lo Mejor 2007 CD1
DYEAR=2007
DGENRE=Salsa
TTITLE0=Una Canción Que Te Enamore
TTITLE1=En Barranquilla Me Quedo
TTITLE2=Sombra Loca
TTITLE3=Bendita Tu Luz
TTITLE4=Porque Este Amor
TTITLE5=Te Mando Flores
TTITLE6=Boleto Para Dos
TTITLE7=Tu Cariñito
TTITLE8=Candela
TTITLE9=Date un Chance
TTITLE10=La Cita
TTITLE11=Toco por Venir
TTITLE12=La Manola
TTITLE13=Nada Valgo Sin Tu Amor
TTITLE14=Boogaloo del Sabor
EXTD=YEAR: 2007
EXTT0=
EXTT1=
EXTT2=
EXTT3=
EXTT4=
EXTT5=
EXTT6=
EXTT7=
EXTT8=
EXTT9=
EXTT10=
EXTT11=
EXTT12=
EXTT13=
EXTT14=
PLAYORDER=
